<mxfile host="drawio-plugin" modified="2021-12-03T21:54:31.752Z" agent="5.0 (Windows NT 6.2; Win64; x64) AppleWebKit/537.36 (KHTML, like Gecko) Chrome/89.0.4389.114 Safari/537.36" etag="5Kg3tnwF9ciPFDDAZz0t" version="14.7.4" type="embed"><diagram id="23iRSUPoRavnBvh4doch" name="Page-1"><mxGraphModel dx="1662" dy="722" grid="1" gridSize="10" guides="1" tooltips="1" connect="1" arrows="1" fold="1" page="1" pageScale="1" pageWidth="827" pageHeight="1169" math="0" shadow="0"><root><mxCell id="0"/><mxCell id="1" parent="0"/><mxCell id="4" value="" style="edgeStyle=orthogonalEdgeStyle;rounded=0;orthogonalLoop=1;jettySize=auto;html=1;" edge="1" parent="1" source="2" target="3"><mxGeometry relative="1" as="geometry"/></mxCell><mxCell id="2" value="select * from blmkt_link where offline_counter&amp;gt;=7" style="rounded=0;whiteSpace=wrap;html=1;" vertex="1" parent="1"><mxGeometry x="294" y="10" width="120" height="60" as="geometry"/></mxCell><mxCell id="8" value="" style="edgeStyle=orthogonalEdgeStyle;rounded=0;orthogonalLoop=1;jettySize=auto;html=1;" edge="1" parent="1" source="3" target="7"><mxGeometry relative="1" as="geometry"/></mxCell><mxCell id="3" value="calculate online days&lt;br&gt;total amount - online days = refund amount" style="whiteSpace=wrap;html=1;rounded=0;" vertex="1" parent="1"><mxGeometry x="209" y="100" width="290" height="60" as="geometry"/></mxCell><mxCell id="13" style="edgeStyle=orthogonalEdgeStyle;rounded=0;orthogonalLoop=1;jettySize=auto;html=1;exitX=0.5;exitY=1;exitDx=0;exitDy=0;entryX=0.5;entryY=0;entryDx=0;entryDy=0;" edge="1" parent="1" source="7" target="11"><mxGeometry relative="1" as="geometry"/></mxCell><mxCell id="7" value="Link removal process via plugin when site comes back online?" style="whiteSpace=wrap;html=1;rounded=0;" vertex="1" parent="1"><mxGeometry x="249" y="190" width="210" height="60" as="geometry"/></mxCell><mxCell id="17" style="edgeStyle=orthogonalEdgeStyle;rounded=0;orthogonalLoop=1;jettySize=auto;html=1;exitX=0.5;exitY=1;exitDx=0;exitDy=0;entryX=0.5;entryY=0;entryDx=0;entryDy=0;" edge="1" parent="1" source="11" target="16"><mxGeometry relative="1" as="geometry"/></mxCell><mxCell id="11" value="blmkt_order_details&amp;nbsp;&lt;br&gt;refund status =&amp;nbsp; 1 (partial refund) or 2 (full refund)&lt;br&gt;refund_amount += calculated refund_amount&lt;br&gt;&lt;br&gt;blmkt_links&amp;nbsp;&lt;br&gt;status =&amp;nbsp;0 (inactive)&lt;br&gt;&lt;br&gt;blmkt_orders&lt;br&gt;refund_status=1 (partial refund) or 2 (full refund)&lt;br&gt;refund_amount += refund_amount&lt;br&gt;" style="whiteSpace=wrap;html=1;rounded=0;" vertex="1" parent="1"><mxGeometry x="178.5" y="290" width="351" height="170" as="geometry"/></mxCell><mxCell id="16" value="users&lt;br&gt;balance += refund_amount&lt;br&gt;&lt;br&gt;blmkt_user_balance_history&lt;br&gt;insert data with reference_type =3 (refund)" style="whiteSpace=wrap;html=1;rounded=0;" vertex="1" parent="1"><mxGeometry x="178.5" y="510" width="351" height="90" as="geometry"/></mxCell></root></mxGraphModel></diagram></mxfile>